<mxfile host="app.diagrams.net" modified="2024-04-13T06:21:20.615Z" agent="Mozilla/5.0 (Windows NT 10.0; Win64; x64) AppleWebKit/537.36 (KHTML, like Gecko) Chrome/123.0.0.0 Safari/537.36 Edg/123.0.0.0" version="24.0.1" etag="jfwLsPtWrOCDehW43dGK" type="github">
  <diagram name="第 1 页" id="wJ5DNB3Z89tR3TzxN0HZ">
    <mxGraphModel>
      <root>
        <mxCell id="0" />
        <mxCell id="1" parent="0" />
      </root>
    </mxGraphModel>
  </diagram>
</mxfile>
